<svg width="68" height="27" viewBox="0 0 68 27" fill="none" xmlns="http://www.w3.org/2000/svg">
<path d="M0.378374 26.3003V0.118474H4.32866V11.4963H17.3812V0.118474H21.3443V26.3003H17.3812V14.8841H4.32866V26.3003H0.378374ZM35.0616 26.6966C33.2207 26.6966 31.6142 26.2747 30.242 25.431C28.8699 24.5872 27.8045 23.4068 27.046 21.8898C26.2875 20.3727 25.9082 18.6 25.9082 16.5716C25.9082 14.5347 26.2875 12.7534 27.046 11.2278C27.8045 9.70228 28.8699 8.51762 30.242 7.67387C31.6142 6.83012 33.2207 6.40825 35.0616 6.40825C36.9025 6.40825 38.5091 6.83012 39.8812 7.67387C41.2534 8.51762 42.3187 9.70228 43.0772 11.2278C43.8358 12.7534 44.215 14.5347 44.215 16.5716C44.215 18.6 43.8358 20.3727 43.0772 21.8898C42.3187 23.4068 41.2534 24.5872 39.8812 25.431C38.5091 26.2747 36.9025 26.6966 35.0616 26.6966ZM35.0744 23.4878C36.2676 23.4878 37.2562 23.1725 38.0403 22.5418C38.8244 21.9111 39.4039 21.0716 39.7789 20.0233C40.1625 18.975 40.3542 17.8202 40.3542 16.5588C40.3542 15.306 40.1625 14.1554 39.7789 13.1071C39.4039 12.0503 38.8244 11.2023 38.0403 10.5631C37.2562 9.92387 36.2676 9.60427 35.0744 9.60427C33.8727 9.60427 32.8755 9.92387 32.0829 10.5631C31.2988 11.2023 30.715 12.0503 30.3315 13.1071C29.9565 14.1554 29.769 15.306 29.769 16.5588C29.769 17.8202 29.9565 18.975 30.3315 20.0233C30.715 21.0716 31.2988 21.9111 32.0829 22.5418C32.8755 23.1725 33.8727 23.4878 35.0744 23.4878ZM57.6479 6.66393V9.73211H46.9221V6.66393H57.6479ZM49.7985 1.95938H53.6209V20.5347C53.6209 21.2761 53.7317 21.8344 53.9533 22.2094C54.1749 22.5759 54.4604 22.8273 54.8098 22.9636C55.1678 23.0915 55.5556 23.1554 55.9732 23.1554C56.28 23.1554 56.5485 23.1341 56.7786 23.0915C57.0087 23.0489 57.1877 23.0148 57.3155 22.9892L58.0059 26.1469C57.7843 26.2321 57.4689 26.3173 57.0598 26.4026C56.6507 26.4963 56.1394 26.5475 55.5257 26.556C54.5201 26.573 53.5826 26.394 52.7132 26.019C51.8439 25.644 51.1408 25.0645 50.6039 24.2804C50.0669 23.4963 49.7985 22.5119 49.7985 21.3273V1.95938ZM66.6958 0.118474L66.3635 18.7705H62.8223L62.4899 0.118474H66.6958ZM64.5993 26.5432C63.8919 26.5432 63.2868 26.296 62.7839 25.8017C62.2811 25.2989 62.0339 24.6938 62.0424 23.9864C62.0339 23.2875 62.2811 22.6909 62.7839 22.1966C63.2868 21.6938 63.8919 21.4423 64.5993 21.4423C65.2896 21.4423 65.8862 21.6938 66.389 22.1966C66.8919 22.6909 67.1476 23.2875 67.1561 23.9864C67.1476 24.4551 67.024 24.8855 66.7853 25.2776C66.5552 25.6611 66.2484 25.9679 65.8649 26.198C65.4814 26.4281 65.0595 26.5432 64.5993 26.5432Z" fill="white"/>
</svg>
