<svg width="38" height="15" viewBox="0 0 38 15" fill="none" xmlns="http://www.w3.org/2000/svg">
<path d="M11.0043 0.909091V14H9.18892L2.5348 4.39915H2.41335V14H0.43821V0.909091H2.26634L8.92685 10.5227H9.0483V0.909091H11.0043ZM17.9636 14.1982C16.9963 14.1982 16.1632 13.9915 15.4643 13.5781C14.7697 13.1605 14.2328 12.5746 13.8535 11.8203C13.4785 11.0618 13.291 10.1733 13.291 9.15483C13.291 8.14915 13.4785 7.26278 13.8535 6.49574C14.2328 5.72869 14.7612 5.12997 15.4387 4.69957C16.1206 4.26918 16.9174 4.05398 17.8294 4.05398C18.3833 4.05398 18.9203 4.1456 19.4402 4.32884C19.96 4.51207 20.4267 4.79972 20.84 5.19176C21.2534 5.58381 21.5794 6.09304 21.818 6.71946C22.0566 7.34162 22.176 8.09801 22.176 8.98864V9.66619H14.3713V8.23438H20.3031C20.3031 7.73153 20.2008 7.28622 19.9963 6.89844C19.7917 6.50639 19.5041 6.19744 19.1333 5.97159C18.7669 5.74574 18.3365 5.63281 17.8422 5.63281C17.3052 5.63281 16.8365 5.76491 16.4359 6.02912C16.0396 6.28906 15.7328 6.62997 15.5154 7.05185C15.3024 7.46946 15.1958 7.9233 15.1958 8.41335V9.53196C15.1958 10.1882 15.3109 10.7464 15.541 11.2067C15.7754 11.6669 16.1014 12.0185 16.519 12.2614C16.9366 12.5 17.4245 12.6193 17.9828 12.6193C18.345 12.6193 18.6752 12.5682 18.9735 12.4659C19.2718 12.3594 19.5297 12.2017 19.747 11.9929C19.9643 11.7841 20.1305 11.5263 20.2456 11.2195L22.0545 11.5455C21.9096 12.0781 21.6497 12.5447 21.2747 12.9453C20.9039 13.3416 20.4373 13.6506 19.8748 13.8722C19.3166 14.0895 18.6795 14.1982 17.9636 14.1982ZM26.4075 14L23.5183 4.18182H25.4934L27.4174 11.392H27.5133L29.4437 4.18182H31.4189L33.3365 11.3601H33.4324L35.3436 4.18182H37.3187L34.4359 14H32.4863L30.492 6.91122H30.345L28.3507 14H26.4075Z" fill="white"/>
</svg>
