<svg width="710" height="230" viewBox="0 0 710 230" fill="none" xmlns="http://www.w3.org/2000/svg">
<path d="M119.287 82C118.737 75.1345 116.163 69.7794 111.563 65.9347C107.032 62.09 100.132 60.1676 90.8633 60.1676C84.9589 60.1676 80.1187 60.8885 76.3427 62.3302C72.6353 63.7034 69.8891 65.5914 68.1041 67.9943C66.319 70.3972 65.3922 73.1435 65.3235 76.2329C65.1862 78.7732 65.6325 81.0732 66.6623 83.1328C67.7608 85.1238 69.4772 86.9432 71.8114 88.5909C74.1457 90.17 77.1322 91.6117 80.771 92.9162C84.4097 94.2206 88.735 95.3878 93.7468 96.4176L111.048 100.125C122.719 102.597 132.709 105.858 141.016 109.908C149.323 113.959 156.12 118.731 161.407 124.223C166.693 129.647 170.572 135.757 173.044 142.554C175.584 149.351 176.888 156.766 176.957 164.798C176.888 178.667 173.421 190.407 166.556 200.018C159.69 209.63 149.873 216.942 137.103 221.954C124.401 226.966 109.126 229.472 91.2752 229.472C72.9442 229.472 56.9476 226.76 43.2852 221.336C29.6914 215.912 19.1185 207.571 11.5664 196.311C4.08298 184.983 0.306936 170.497 0.238281 152.852H54.6133C54.9566 159.306 56.57 164.73 59.4535 169.124C62.337 173.518 66.3877 176.847 71.6055 179.113C76.8919 181.379 83.1739 182.511 90.4514 182.511C96.5617 182.511 101.676 181.756 105.796 180.246C109.915 178.735 113.039 176.641 115.167 173.964C117.296 171.286 118.394 168.231 118.463 164.798C118.394 161.571 117.33 158.757 115.27 156.354C113.279 153.882 109.984 151.685 105.384 149.763C100.784 147.772 94.5707 145.918 86.744 144.202L65.7354 139.67C47.0612 135.62 32.3346 128.857 21.5558 119.383C10.8455 109.84 5.52474 96.8295 5.59339 80.3523C5.52474 66.9645 9.09482 55.2588 16.3036 45.2351C23.5811 35.1427 33.6391 27.2817 46.4776 21.652C59.3848 16.0222 74.18 13.2074 90.8633 13.2074C107.89 13.2074 122.616 16.0566 135.043 21.755C147.47 27.4534 157.047 35.486 163.775 45.853C170.572 56.1513 174.005 68.2003 174.074 82H119.287Z" fill="white" fill-opacity="0.08"/>
<path d="M256.408 16.0909V227H199.562V16.0909H256.408Z" fill="white" fill-opacity="0.08"/>
<path d="M285.372 227V68.8182H342.219V227H285.372ZM313.796 52.3409C306.106 52.3409 299.515 49.8007 294.023 44.7202C288.53 39.6397 285.784 33.5294 285.784 26.3892C285.784 19.2491 288.53 13.1387 294.023 8.05823C299.515 2.97774 306.106 0.4375 313.796 0.4375C321.554 0.4375 328.145 2.97774 333.568 8.05823C339.061 13.1387 341.807 19.2491 341.807 26.3892C341.807 33.5294 339.061 39.6397 333.568 44.7202C328.145 49.8007 321.554 52.3409 313.796 52.3409Z" fill="white" fill-opacity="0.08"/>
<path d="M447.39 229.884C430.226 229.884 415.534 226.485 403.314 219.688C391.093 212.823 381.721 203.28 375.199 191.059C368.677 178.77 365.416 164.524 365.416 148.321C365.416 132.118 368.677 117.907 375.199 105.686C381.721 93.3968 391.093 83.8537 403.314 77.0568C415.534 70.1913 430.226 66.7585 447.39 66.7585C462.906 66.7585 476.328 69.5734 487.657 75.2031C499.053 80.7642 507.876 88.6596 514.123 98.8892C520.371 109.05 523.529 120.996 523.598 134.727H470.87C470.115 126.42 467.712 120.104 463.662 115.778C459.68 111.384 454.53 109.188 448.214 109.188C443.271 109.188 438.946 110.629 435.238 113.513C431.531 116.328 428.647 120.619 426.588 126.386C424.528 132.084 423.498 139.259 423.498 147.909C423.498 156.56 424.528 163.768 426.588 169.536C428.647 175.234 431.531 179.525 435.238 182.408C438.946 185.223 443.271 186.631 448.214 186.631C452.402 186.631 456.109 185.67 459.336 183.747C462.563 181.756 465.172 178.873 467.163 175.097C469.223 171.252 470.458 166.583 470.87 161.091H523.598C523.392 175.028 520.199 187.18 514.02 197.547C507.841 207.845 499.088 215.809 487.76 221.439C476.5 227.069 463.044 229.884 447.39 229.884Z" fill="white" fill-opacity="0.08"/>
<path d="M598.132 189.514L598.544 121.957H605.958L644.268 68.8182H708.117L643.856 151.616H627.791L598.132 189.514ZM547.052 227V16.0909H603.899V227H547.052ZM644.68 227L608.43 164.386L645.504 124.017L709.765 227H644.68Z" fill="white" fill-opacity="0.08"/>
</svg>
